<svg id="Layer_1" data-name="Layer 1" xmlns="http://www.w3.org/2000/svg" viewBox="0 0 571.31 571.31"><defs><style>.cls-1{fill:#fff;}</style></defs><title>LogoSvg</title><path class="cls-1" d="M586.66,586.66H15.34V15.34H586.66ZM290,540.73c9.63-.55,23.31-1,36.92-2.17,50.82-4.37,97.39-20.27,137.07-53.07,29.17-24.11,51.07-53.53,60-91.11a57.4,57.4,0,0,0,1-18.5c-.75-7.77-6.51-9.76-12.54-4.93a58.41,58.41,0,0,0-5.33,5.23,160,160,0,0,1-85.32,46.92c-5.1,1-10.57,5.08-13.89,9.29-35.36,44.81-81.21,64.94-137.76,57-57.18-8-96.67-40.55-115.73-94.59-19.27-54.64-7.66-104.77,32.45-146.63C246.14,186.3,347.5,190.46,402,256c15.92,19.13,16.09,19.4,38.11,6,72-43.86,96.17-112.83,100.22-192.23.32-6.31-3.06-8.27-8.63-8-11.79.65-23.64.77-35.35,2.14-88.44,10.35-172.25,35.51-250,79.5C202.46,168.27,163.29,199,130.71,238,89.55,287.12,68.25,344.2,62.33,407.44c-2.15,23.05.07,45.57,13.48,65.41,13.13,19.42,31.59,32.37,52.91,41.43C179,535.65,232.26,539.37,290,540.73Zm-.13-75.3c64.9.06,119.16-52.65,119.25-116.31.1-67-52.27-118.42-117.63-118.59-69.58-.19-118.69,54-119.26,117C171.67,411.55,225.75,465.37,289.88,465.43Zm141.45-76.22c8.23-2.73,15.92-4.68,23.11-7.77,57.42-24.67,84-108.08,79.86-150.65-.32-3.31-3.17-6.38-4.85-9.56-3.26,1.89-7.4,3.05-9.64,5.77-23.68,28.73-51.76,51.83-85.49,67.76-5.57,2.63-6.54,5.62-5.32,11.67,2.73,13.63,5.39,27.47,5.82,41.3C435.22,360.84,432.73,374.05,431.33,389.21Z" transform="translate(-15.34 -15.34)"/><path d="M290,540.73c-57.75-1.36-111-5.08-161.29-26.45-21.32-9.06-39.78-22-52.91-41.43C62.4,453,60.18,430.49,62.33,407.44,68.25,344.2,89.55,287.12,130.71,238c32.58-38.92,71.75-69.68,115.67-94.54,77.71-44,161.52-69.15,250-79.5,11.71-1.37,23.56-1.49,35.35-2.14,5.57-.31,8.95,1.65,8.63,8C536.27,149.13,512.15,218.1,440.1,262c-22,13.41-22.19,13.14-38.11-6-54.49-65.51-155.85-69.67-215.14-7.8-40.11,41.86-51.72,92-32.45,146.63,19.06,54,58.55,86.57,115.73,94.59,56.55,7.94,102.4-12.19,137.76-57,3.32-4.21,8.79-8.25,13.89-9.29a160,160,0,0,0,85.32-46.92,58.41,58.41,0,0,1,5.33-5.23c6-4.83,11.79-2.84,12.54,4.93a57.4,57.4,0,0,1-1,18.5c-8.93,37.58-30.83,67-60,91.11-39.68,32.8-86.25,48.7-137.07,53.07C313.32,539.73,299.64,540.18,290,540.73Z" transform="translate(-15.34 -15.34)"/><path d="M289.88,465.43c-64.13-.06-118.21-53.88-117.64-117.88.57-63,49.68-117.21,119.26-117,65.36.17,117.73,51.6,117.63,118.59C409,412.78,354.78,465.49,289.88,465.43Zm-55.55-78.35h1.41c0,6.21-.1,12.43,0,18.64.28,14.23,9.28,19.69,21.73,12.7q48.74-27.36,97.19-55.26c13.44-7.72,13.39-19,.06-27.22-18-11-36.11-21.9-54.2-32.8-14.37-8.66-28.6-17.55-43.21-25.78-11.93-6.72-21.13-1.3-21.62,12.05-.4,11.15-1.2,22.3-1.31,33.46C234.18,344.27,234.33,365.68,234.33,387.08Z" transform="translate(-15.34 -15.34)"/><path d="M431.33,389.21c1.4-15.16,3.89-28.37,3.49-41.48-.43-13.83-3.09-27.67-5.82-41.3-1.22-6.05-.25-9,5.32-11.67,33.73-15.93,61.81-39,85.49-67.76,2.24-2.72,7-6.44,9.64-5.77,3.11,1.26,4.53,6.25,4.85,9.56,4.15,42.57-22.44,126-79.86,150.65C447.25,384.53,439.56,386.48,431.33,389.21Z" transform="translate(-15.34 -15.34)"/><path class="cls-1" d="M234.33,387.08c0-21.4-.15-42.81.07-64.21.11-11.16.91-22.31,1.31-33.46.49-13.35,9.69-18.77,21.62-12.05,14.61,8.23,28.84,17.12,43.21,25.78,18.09,10.9,36.2,21.76,54.2,32.8,13.33,8.19,13.38,19.5-.06,27.22Q306.22,391,257.49,418.42c-12.45,7-22.93,1.3-23.21-12.93" transform="translate(-15.34 -15.34)"/></svg>